<svg xmlns="http://www.w3.org/2000/svg"><symbol viewBox="0 0 64 64" id="icon-0001-home"> <path d="M64 36.903l-32-24.839-32 24.839v-10.127l32-24.839 32 24.839zM56 36v24h-16v-16h-16v16h-16v-24l24-18z" fill="#000000"/> </symbol><symbol viewBox="0 0 64 64" id="icon-0002-home2"> <path d="M32 2l-32 32 6 6 6-6v26h16v-12h8v12h16v-26l6 6 6-6-32-32zM32 28c-2.209 0-4-1.791-4-4s1.791-4 4-4c2.209 0 4 1.791 4 4s-1.791 4-4 4z" fill="#000000"/> </symbol><symbol viewBox="0 0 64 64" id="icon-0003-home3"> <path d="M64 38l-12-12v-18h-8v10l-12-12-32 32v2h8v20h20v-12h8v12h20v-20h8z" fill="#000000"/> </symbol><symbol viewBox="0 0 64 64" id="icon-0004-office"> <path d="M0 64h32v-64h-32v64zM20 8h8v8h-8v-8zM20 24h8v8h-8v-8zM20 40h8v8h-8v-8zM4 8h8v8h-8v-8zM4 24h8v8h-8v-8zM4 40h8v8h-8v-8zM36 20h28v4h-28zM36 64h8v-16h12v16h8v-36h-28z" fill="#000000"/> </symbol><symbol viewBox="0 0 64 64" id="icon-0005-newspaper"> <path d="M56 16v-8h-56v44c0 2.209 1.791 4 4 4h54c3.314 0 6-2.686 6-6v-34h-8zM52 52h-48v-40h48v40zM8 20h40v4h-40zM32 28h16v4h-16zM32 36h16v4h-16zM32 44h12v4h-12zM8 28h20v20h-20z" fill="#000000"/> </symbol><symbol viewBox="0 0 64 64" id="icon-0006-pencil"> <path d="M54 0c5.523 0 10 4.477 10 10 0 2.251-0.744 4.329-2 6l-4 4-14-14 4-4c1.671-1.256 3.749-2 6-2zM4 46l-4 18 18-4 37-37-14-14-37 37zM44.724 22.724l-28 28-3.447-3.447 28-28 3.447 3.447z" fill="#000000"/> </symbol><symbol viewBox="0 0 64 64" id="icon-0007-pencil2"> <path d="M24 40l8-4 28-28-4-4-28 28-4 8zM18.081 54.194c-1.977-4.17-4.104-6.298-8.275-8.275l6.193-17.049 8-4.869 24-24h-12l-24 24-12 40 40-12 24-24v-12l-24 24-4.87 8z" fill="#000000"/> </symbol><symbol viewBox="0 0 64 64" id="icon-0008-quill"> <path d="M0 64c8-24 28.938-64 64-64-16.438 13.188-24 44-36 44s-12 0-12 0l-12 20h-4z"/> </symbol><symbol viewBox="0 0 64 64" id="icon-0009-pen"> <path d="M63.636 18.243l-17.879-17.879c-0.583-0.583-1.353-0.452-1.71 0.292l-2.397 4.994 16.7 16.7 4.994-2.397c0.744-0.357 0.875-1.126 0.292-1.71z" fill="#000000"/> <path d="M38.462 8.461l-16.462 1.372c-1.094 0.135-2.005 0.369-2.318 1.797-0 0.002-0.001 0.003-0.001 0.004-4.464 21.442-19.681 42.365-19.681 42.365l3.586 3.586 16.999-16.999c-0.375-0.783-0.585-1.66-0.585-2.587 0-3.314 2.686-6 6-6s6 2.686 6 6-2.686 6-6 6c-0.926 0-1.803-0.21-2.587-0.585l-16.999 16.999 3.586 3.586c0 0 20.924-15.217 42.365-19.681 0.002-0 0.003-0.001 0.004-0.001 1.428-0.313 1.662-1.224 1.797-2.318l1.372-16.462-17.077-17.077z" fill="#000000"/> </symbol><symbol viewBox="0 0 64 64" id="icon-0010-blog"> <path d="M24 0v6c4.593 0 9.044 0.898 13.232 2.669 4.048 1.712 7.685 4.165 10.809 7.289s5.577 6.761 7.289 10.809c1.771 4.188 2.669 8.64 2.669 13.232h6c0-22.091-17.909-40-40-40z" fill="#000000"/> <path d="M24 12v6c5.876 0 11.401 2.288 15.556 6.444s6.444 9.68 6.444 15.556h6c0-15.464-12.536-28-28-28z" fill="#000000"/> <path d="M30 24l-4 4-14 4-12 26 1.586 1.586 14.55-14.55c-0.088-0.33-0.136-0.678-0.136-1.036 0-2.209 1.791-4 4-4s4 1.791 4 4-1.791 4-4 4c-0.358 0-0.705-0.048-1.035-0.136l-14.55 14.55 1.586 1.586 26-12 4-14 4-4-10-10z" fill="#000000"/> </symbol><symbol viewBox="0 0 64 64" id="icon-0011-eyedropper"> <path d="M61.657 2.343c-3.124-3.124-8.19-3.124-11.314 0l-10.757 10.757-7.586-7.586-8.485 8.485 6.652 6.652-29.507 29.507c-0.503 0.503-0.717 1.185-0.644 1.841h-0.015v10c0 1.105 0.895 2 2 2h10c0 0 0.166 0 0.25 0 0.576 0 1.152-0.22 1.591-0.659l29.507-29.507 6.652 6.652 8.485-8.485-7.586-7.586 10.757-10.757c3.124-3.124 3.124-8.19 0-11.314zM10.818 60h-6.818v-6.818l29.348-29.348 6.818 6.818-29.348 29.348z" fill="#000000"/> </symbol><symbol viewBox="0 0 64 64" id="icon-0012-droplet"> <path d="M54.039 29.573c-4.11-11.465-12.819-21.759-22.039-29.573-9.22 7.813-17.929 18.108-22.039 29.573-2.542 7.090-2.793 14.785 0.787 21.587 4.115 7.821 12.415 12.84 21.253 12.84s17.137-5.019 21.252-12.84c3.579-6.802 3.328-14.498 0.787-21.587zM46.173 47.435c-2.738 5.203-8.301 8.565-14.173 8.565-3.445 0-6.783-1.159-9.507-3.166 0.828 0.108 1.665 0.166 2.507 0.166 7.339 0 14.292-4.201 17.713-10.703 2.805-5.331 2.561-10.866 1.493-15.271 0.91 1.759 1.682 3.512 2.303 5.246 1.413 3.941 2.502 9.771-0.336 15.163z" fill="#000000"/> </symbol><symbol viewBox="0 0 64 64" id="icon-0013-paint-format"> <path d="M64 36v-24h-12v-4c0-2.2-1.8-4-4-4h-44c-2.2 0-4 1.8-4 4v12c0 2.2 1.8 4 4 4h44c2.2 0 4-1.8 4-4v-4h8v16h-36v8h-2c-1.105 0-2 0.895-2 2v20c0 1.105 0.895 2 2 2h8c1.105 0 2-0.895 2-2v-20c0-1.105-0.895-2-2-2h-2v-4h36zM48 12h-44v-4h44v4z" fill="#000000"/> </symbol><symbol viewBox="0 0 64 64" id="icon-0014-image"> <path d="M59.993 8c0.002 0.002 0.005 0.005 0.007 0.007v47.986c-0.002 0.002-0.005 0.005-0.007 0.007h-55.986c-0.003-0.002-0.005-0.005-0.007-0.007v-47.986c0.002-0.002 0.005-0.005 0.007-0.007h55.986zM60 4h-56c-2.2 0-4 1.8-4 4v48c0 2.2 1.8 4 4 4h56c2.2 0 4-1.8 4-4v-48c0-2.2-1.8-4-4-4v0z" fill="#000000"/> <path d="M52 18c0 3.314-2.686 6-6 6s-6-2.686-6-6 2.686-6 6-6 6 2.686 6 6z" fill="#000000"/> <path d="M56 52h-48v-8l14-24 16 20h4l14-12z" fill="#000000"/> </symbol><symbol viewBox="0 0 72 64" id="icon-0015-images"> <path d="M68 8h-4v-4c0-2.2-1.8-4-4-4h-56c-2.2 0-4 1.8-4 4v48c0 2.2 1.8 4 4 4h4v4c0 2.2 1.8 4 4 4h56c2.2 0 4-1.8 4-4v-48c0-2.2-1.8-4-4-4zM8 12v40h-3.993c-0.003-0.002-0.005-0.005-0.007-0.007v-47.986c0.002-0.003 0.005-0.005 0.007-0.007h55.986c0.002 0.002 0.005 0.005 0.007 0.007v3.993h-48c-2.2 0-4 1.8-4 4v0zM68 59.993c-0.002 0.002-0.005 0.005-0.007 0.007h-55.986c-0.002-0.002-0.005-0.005-0.007-0.007v-47.986c0.002-0.002 0.005-0.005 0.007-0.007h55.986c0.002 0.002 0.005 0.005 0.007 0.007v47.986z" fill="#000000"/> <path d="M60 22c0 3.314-2.686 6-6 6s-6-2.686-6-6 2.686-6 6-6 6 2.686 6 6z" fill="#000000"/> <path d="M64 56h-48v-8l14-24 16 20h4l14-12z" fill="#000000"/> </symbol><symbol viewBox="0 0 64 64" id="icon-0016-camera"> <path d="M19 38c0 7.18 5.82 13 13 13s13-5.82 13-13-5.82-13-13-13-13 5.82-13 13zM60 16h-14c-1-4-2-8-6-8h-16c-4 0-5 4-6 8h-14c-2.2 0-4 1.8-4 4v36c0 2.2 1.8 4 4 4h56c2.2 0 4-1.8 4-4v-36c0-2.2-1.8-4-4-4zM32 55.75c-9.803 0-17.75-7.947-17.75-17.75s7.947-17.75 17.75-17.75c9.803 0 17.75 7.947 17.75 17.75s-7.947 17.75-17.75 17.75zM60 28h-8v-4h8v4z"/> </symbol><symbol viewBox="0 0 64 64" id="icon-0017-headphones"> <path d="M18 36h-4v28h4c1.1 0 2-0.9 2-2v-24c0-1.1-0.9-2-2-2z" fill="#000000"/> <path d="M46 36c-1.1 0-2 0.9-2 2v24c0 1.1 0.9 2 2 2h4v-28h-4z" fill="#000000"/> <path d="M64 32c0-17.673-14.327-32-32-32s-32 14.327-32 32c0 3.838 0.677 7.518 1.916 10.928-1.217 2.075-1.916 4.492-1.916 7.072 0 7.053 5.215 12.887 12 13.857v-27.714c-1.995 0.285-3.854 0.99-5.485 2.024-0.337-1.67-0.515-3.398-0.515-5.167 0-14.359 11.641-26 26-26s26 11.641 26 26c0 1.77-0.177 3.498-0.514 5.169-1.631-1.034-3.491-1.74-5.486-2.026v27.715c6.784-0.971 12-6.805 12-13.857 0-2.58-0.699-4.996-1.916-7.071 1.239-3.41 1.916-7.091 1.916-10.929z" fill="#000000"/> </symbol><symbol viewBox="0 0 64 64" id="icon-0018-music"> <path d="M60 0h4v46c0 5.523-6.268 10-14 10s-14-4.477-14-10c0-5.523 6.268-10 14-10 3.918 0 7.459 1.15 10 3.002v-23.003l-32 7.111v30.889c0 5.523-6.268 10-14 10s-14-4.477-14-10c0-5.523 6.268-10 14-10 3.918 0 7.459 1.15 10 3.002v-39.002l36-8z" fill="#000000"/> </symbol><symbol viewBox="0 0 64 64" id="icon-0019-play"> <path d="M61.324 10.007c-8.977-1.291-18.896-2.007-29.324-2.007s-20.347 0.716-29.325 2.007c-1.721 6.733-2.675 14.172-2.675 21.993s0.955 15.26 2.675 21.993c8.977 1.291 18.896 2.007 29.325 2.007s20.347-0.716 29.324-2.007c1.721-6.733 2.676-14.172 2.676-21.993s-0.955-15.26-2.676-21.993zM24 44v-24l20 12-20 12z" fill="#000000"/> </symbol><symbol viewBox="0 0 64 64" id="icon-0020-film"> <path d="M0 8v48h64v-48h-64zM12 52h-8v-8h8v8zM12 36h-8v-8h8v8zM12 20h-8v-8h8v8zM48 52h-32v-40h32v40zM60 52h-8v-8h8v8zM60 36h-8v-8h8v8zM60 20h-8v-8h8v8zM24 20v24l16-12z" fill="#000000"/> </symbol><symbol viewBox="0 0 64 64" id="icon-0021-video-camera"> <path d="M24 18c0-5.523 4.477-10 10-10s10 4.477 10 10c0 5.523-4.477 10-10 10s-10-4.477-10-10zM0 18c0-5.523 4.477-10 10-10s10 4.477 10 10c0 5.523-4.477 10-10 10s-10-4.477-10-10zM48 38v-6c0-2.2-1.8-4-4-4h-40c-2.2 0-4 1.8-4 4v20c0 2.2 1.8 4 4 4h40c2.2 0 4-1.8 4-4v-6l16 10v-28l-16 10zM40 48h-32v-12h32v12z" fill="#000000"/> </symbol><symbol viewBox="0 0 64 64" id="icon-0022-dice"> <path d="M54 12h-32c-5.5 0-10 4.5-10 10v32c0 5.5 4.5 10 10 10h32c5.5 0 10-4.5 10-10v-32c0-5.5-4.5-10-10-10zM26 56c-3.314 0-6-2.686-6-6s2.686-6 6-6 6 2.686 6 6-2.686 6-6 6zM26 32c-3.314 0-6-2.686-6-6s2.686-6 6-6 6 2.686 6 6-2.686 6-6 6zM38 44c-3.314 0-6-2.686-6-6s2.686-6 6-6 6 2.686 6 6-2.686 6-6 6zM50 56c-3.314 0-6-2.686-6-6s2.686-6 6-6 6 2.686 6 6-2.686 6-6 6zM50 32c-3.314 0-6-2.686-6-6s2.686-6 6-6 6 2.686 6 6-2.686 6-6 6zM51.797 8c-0.933-4.55-4.982-8-9.797-8h-32c-5.5 0-10 4.5-10 10v32c0 4.815 3.45 8.864 8 9.797v-39.797c0-2.2 1.8-4 4-4h39.797z" fill="#000000"/> </symbol><symbol viewBox="0 0 64 64" id="icon-0023-pacman"> <path d="M60.296 11.175c-5.869-6.841-14.576-11.175-24.296-11.175-17.673 0-32 14.327-32 32s14.327 32 32 32c9.72 0 18.427-4.335 24.296-11.175l-20.296-20.825 20.296-20.825zM44 7.538c2.465 0 4.462 1.998 4.462 4.462s-1.998 4.462-4.462 4.462-4.462-1.998-4.462-4.462c0-2.464 1.998-4.462 4.462-4.462z" fill="#000000"/> </symbol><symbol viewBox="0 0 64 64" id="icon-0024-spades"> <path d="M51.098 21.759c-12.098-8.991-16.267-16.189-19.098-21.759v0c-0 0-0-0-0-0v0c-2.831 5.571-7 12.768-19.098 21.759-20.627 15.33-1.211 36.729 15.86 24.952-1.112 7.308-4.908 12.636-8.763 14.93v2.359h24.002v-2.359c-3.855-2.294-7.651-7.622-8.763-14.93 17.071 11.778 36.487-9.621 15.86-24.952z" fill="#000000"/> </symbol><symbol viewBox="0 0 64 64" id="icon-0025-clubs"> <path d="M49.177 24.548c-3.69 0-7.005 1.537-9.366 4.043-1 1.061-2.735 2.32-4.612 3.426 0.882-3.367 3.667-7.606 5.602-9.466 2.477-2.386 3.999-5.739 3.999-9.469 0-7.181-5.717-13.006-12.799-13.082-7.082 0.076-12.8 5.902-12.8 13.082 0 3.729 1.521 7.083 3.999 9.469 1.935 1.86 4.72 6.099 5.602 9.466-1.878-1.106-3.613-2.364-4.613-3.426-2.36-2.506-5.676-4.043-9.366-4.043-7.149 0-12.943 5.854-12.943 13.083 0 7.227 5.793 13.084 12.943 13.084 3.69 0 7.005-1.585 9.366-4.091 1.050-1.117 2.903-2.509 4.893-3.664-0.188 9.231-4.596 16.011-9.082 18.682v2.359h24.001v-2.359c-4.487-2.671-8.895-9.451-9.083-18.682 1.991 1.156 3.843 2.548 4.893 3.664 2.36 2.506 5.675 4.091 9.366 4.091 7.149 0 12.942-5.856 12.942-13.084-0-7.229-5.793-13.083-12.943-13.083z" fill="#000000"/> </symbol><symbol viewBox="0 0 64 64" id="icon-0026-diamonds"> <path d="M32 0l-20 32 20 32 20-32z" fill="#000000"/> </symbol><symbol viewBox="0 0 512 128" id="icon-0027-bullhorn-512x128"> <path d="M329.142,52.18c0-28.704-8.399-51.99-18.784-52.175c0.041,0,0.084-0.004,0.123-0.004h-11.848c0,0-27.83,20.905-67.89,29.107
	c-1.223,6.471-2.004,14.183-2.004,23.072c0,8.889,0.781,16.6,2.004,23.07c40.06,8.207,67.89,29.107,67.89,29.107h11.848
	c-0.039,0-0.082-0.005-0.123-0.005c10.387-0.183,18.784-23.468,18.784-52.17V52.18z M306.4,96.465c-1.34,0-2.79-1.393-3.536-2.223
	c-1.804-2.01-3.542-5.139-5.026-9.045c-3.321-8.75-5.152-20.473-5.152-33.018s1.831-24.27,5.152-33.017
	c1.487-3.908,3.223-7.037,5.026-9.047c0.746-0.829,2.195-2.221,3.536-2.221c1.344,0,2.791,1.392,3.535,2.221
	c1.809,2.01,3.545,5.136,5.027,9.047c3.323,8.748,5.151,20.473,5.151,33.017s-1.831,24.268-5.151,33.018
	c-1.482,3.91-3.224,7.035-5.027,9.045C309.195,95.072,307.744,96.465,306.4,96.465z M218.829,52.18
	c0-7.422,0.545-14.632,1.581-21.297c-6.769,0.936-12.706,1.473-20.048,1.473c-9.58,0-9.58,0-9.58,0l-7.924,13.527v12.596
	l7.922,13.527c0,0,0,0,9.58,0c7.341,0,13.281,0.539,20.047,1.473c-1.033-6.664-1.58-13.877-1.58-21.299H218.829z M235.448,82.6
	l-18.285-3.506l11.691,45.936c0.606,2.377,2.963,3.577,5.241,2.665l16.938-6.779c2.278-0.91,3.188-3.424,2.026-5.584l-17.611-32.737
	V82.6z M306.4,69.248c-0.516,0-1.075-0.537-1.361-0.854c-0.697-0.775-1.366-1.979-1.938-3.487
	c-1.281-3.373-1.987-7.892-1.987-12.726c0-4.834,0.706-9.354,1.987-12.725c0.571-1.506,1.24-2.713,1.938-3.488
	c0.287-0.319,0.846-0.857,1.361-0.857c0.518,0,1.076,0.538,1.361,0.857c0.696,0.775,1.367,1.98,1.938,3.488
	c1.281,3.371,1.986,7.89,1.986,12.725c0,4.833-0.705,9.353-1.986,12.726c-0.57,1.504-1.242,2.711-1.938,3.487
	C307.477,68.715,306.918,69.248,306.4,69.248z"/> </symbol><symbol viewBox="0 0 64 64" id="icon-0027-bullhorn"> <path d="M64 26.828c0-12.558-3.675-22.746-8.218-22.827 0.018-0 0.036-0.002 0.054-0.002h-5.184c0 0-12.175 9.146-29.702 12.735-0.535 2.831-0.877 6.205-0.877 10.094s0.342 7.263 0.877 10.094c17.527 3.589 29.702 12.735 29.702 12.735h5.184c-0.018 0-0.036-0.002-0.054-0.002 4.544-0.081 8.218-10.269 8.218-22.826zM54.051 46.203c-0.586 0-1.221-0.609-1.547-0.972-0.789-0.879-1.55-2.248-2.199-3.958-1.453-3.827-2.254-8.957-2.254-14.445s0.801-10.618 2.254-14.445c0.65-1.71 1.41-3.079 2.199-3.958 0.326-0.363 0.96-0.972 1.547-0.972s1.221 0.609 1.547 0.972c0.79 0.879 1.55 2.247 2.199 3.958 1.454 3.827 2.254 8.957 2.254 14.445s-0.801 10.618-2.254 14.445c-0.649 1.711-1.41 3.079-2.199 3.958-0.325 0.363-0.96 0.972-1.547 0.972zM15.738 26.828c0-3.247 0.238-6.402 0.691-9.318-2.961 0.41-5.559 0.645-8.771 0.645-4.191 0-4.191 0-4.191 0l-3.467 5.918v5.511l3.466 5.918c0 0 0 0 4.191 0 3.212 0 5.811 0.236 8.771 0.645-0.452-2.916-0.691-6.072-0.691-9.319zM23.009 40.136l-8-1.532 5.115 20.096c0.265 1.040 1.296 1.565 2.293 1.166l7.41-2.966c0.997-0.398 1.395-1.498 0.887-2.443l-7.705-14.322zM54.051 34.296c-0.226 0-0.471-0.235-0.596-0.374-0.304-0.339-0.597-0.866-0.848-1.526-0.56-1.475-0.869-3.452-0.869-5.567s0.309-4.092 0.869-5.567c0.25-0.659 0.544-1.187 0.848-1.526 0.126-0.14 0.37-0.375 0.596-0.375s0.471 0.235 0.596 0.375c0.304 0.339 0.597 0.866 0.847 1.526 0.56 1.475 0.869 3.452 0.869 5.567s-0.309 4.092-0.869 5.567c-0.25 0.659-0.544 1.187-0.847 1.526-0.126 0.14-0.37 0.374-0.596 0.374z" fill="#000000"/> </symbol><symbol viewBox="0 0 80 64" id="icon-0028-connection"> <path d="M40 36c6.617 0 12.617 2.692 16.963 7.037l-5.654 5.654c-2.897-2.897-6.897-4.692-11.308-4.692s-8.411 1.794-11.308 4.692l-5.654-5.654c4.346-4.346 10.346-7.037 16.963-7.037zM11.716 31.716c7.555-7.555 17.6-11.716 28.284-11.716s20.729 4.161 28.284 11.716l-5.657 5.657c-6.044-6.044-14.080-9.373-22.627-9.373s-16.583 3.328-22.627 9.373l-5.657-5.657zM61.799 8.402c6.669 2.821 12.657 6.858 17.799 12v0l-5.657 5.657c-9.066-9.066-21.12-14.059-33.941-14.059s-24.875 4.993-33.941 14.059l-5.657-5.657c5.142-5.142 11.13-9.179 17.799-12 6.907-2.921 14.241-4.402 21.799-4.402s14.892 1.481 21.799 4.402zM36 56c0-2.209 1.791-4 4-4s4 1.791 4 4c0 2.209-1.791 4-4 4s-4-1.791-4-4z" fill="#000000"/> </symbol><symbol viewBox="0 0 64 64" id="icon-0029-podcast"> <path d="M64 32c0-17.673-14.327-32-32-32s-32 14.327-32 32c0 13.753 8.677 25.479 20.855 30.004l-0.855 1.996h24l-0.855-1.996c12.178-4.525 20.855-16.251 20.855-30.004zM30.424 39.677c-1.425-0.612-2.424-2.027-2.424-3.677 0-2.209 1.791-4 4-4s4 1.791 4 4c0 1.649-0.999 3.065-2.424 3.677l-1.576-3.677-1.576 3.677zM33.642 39.831c3.631-0.757 6.358-3.975 6.358-7.831 0-4.418-3.582-8-8-8s-8 3.582-8 8c0 3.856 2.729 7.070 6.36 7.827l-4.664 10.883c-5.702-2.447-9.696-8.111-9.696-14.709 0-8.837 7.164-16.75 16-16.75s16 7.913 16 16.75c0 6.598-3.994 12.262-9.696 14.709l-4.662-10.879zM43.028 61.732l-4.62-10.78c7.903-2.671 13.592-10.147 13.592-18.951 0-11.046-8.954-20-20-20s-20 8.954-20 20c0 8.805 5.689 16.28 13.592 18.951l-4.62 10.78c-9.975-4.28-16.962-14.19-16.962-25.732 0-15.458 12.531-28.74 27.99-28.74s27.99 13.281 27.99 28.74c0 11.542-6.987 21.451-16.962 25.732z" fill="#000000"/> </symbol><symbol viewBox="0 0 64 64" id="icon-0030-feed"> <path d="M24 32c0-4.418 3.582-8 8-8s8 3.582 8 8c0 4.418-3.582 8-8 8s-8-3.582-8-8zM41.522 14.408c6.241 3.385 10.478 9.994 10.478 17.592s-4.237 14.207-10.478 17.592c2.754-4.383 4.478-10.642 4.478-17.592s-1.724-13.209-4.478-17.592zM18 32c0 6.95 1.724 13.209 4.478 17.592-6.241-3.385-10.478-9.994-10.478-17.592s4.238-14.207 10.478-17.592c-2.754 4.383-4.478 10.642-4.478 17.592zM6 32c0 10.744 3.4 20.386 8.791 26.983-8.894-5.684-14.791-15.645-14.791-26.983s5.897-21.298 14.791-26.983c-5.39 6.596-8.791 16.239-8.791 26.983zM49.209 5.018c8.894 5.684 14.791 15.644 14.791 26.983s-5.897 21.298-14.791 26.983c5.39-6.596 8.791-16.239 8.791-26.983s-3.4-20.387-8.791-26.983z" fill="#000000"/> </symbol></svg>