<?xml version="1.0" encoding="utf-8"?>
<!-- Generator: Adobe Illustrator 16.0.0, SVG Export Plug-In . SVG Version: 6.00 Build 0)  -->
<!DOCTYPE svg PUBLIC "-//W3C//DTD SVG 1.1//EN" "http://www.w3.org/Graphics/SVG/1.1/DTD/svg11.dtd">
<svg version="1.1" id="Layer_1" xmlns="http://www.w3.org/2000/svg" xmlns:xlink="http://www.w3.org/1999/xlink" x="0px" y="0px"
	 width="512px" height="128px" viewBox="0 0 512 128" enable-background="new 0 0 512 128" xml:space="preserve">
<path d="M329.142,52.18c0-28.704-8.399-51.99-18.784-52.175c0.041,0,0.084-0.004,0.123-0.004h-11.848c0,0-27.83,20.905-67.89,29.107
	c-1.223,6.471-2.004,14.183-2.004,23.072c0,8.889,0.781,16.6,2.004,23.07c40.06,8.207,67.89,29.107,67.89,29.107h11.848
	c-0.039,0-0.082-0.005-0.123-0.005c10.387-0.183,18.784-23.468,18.784-52.17V52.18z M306.4,96.465c-1.34,0-2.79-1.393-3.536-2.223
	c-1.804-2.01-3.542-5.139-5.026-9.045c-3.321-8.75-5.152-20.473-5.152-33.018s1.831-24.27,5.152-33.017
	c1.487-3.908,3.223-7.037,5.026-9.047c0.746-0.829,2.195-2.221,3.536-2.221c1.344,0,2.791,1.392,3.535,2.221
	c1.809,2.01,3.545,5.136,5.027,9.047c3.323,8.748,5.151,20.473,5.151,33.017s-1.831,24.268-5.151,33.018
	c-1.482,3.91-3.224,7.035-5.027,9.045C309.195,95.072,307.744,96.465,306.4,96.465z M218.829,52.18
	c0-7.422,0.545-14.632,1.581-21.297c-6.769,0.936-12.706,1.473-20.048,1.473c-9.58,0-9.58,0-9.58,0l-7.924,13.527v12.596
	l7.922,13.527c0,0,0,0,9.58,0c7.341,0,13.281,0.539,20.047,1.473c-1.033-6.664-1.58-13.877-1.58-21.299H218.829z M235.448,82.6
	l-18.285-3.506l11.691,45.936c0.606,2.377,2.963,3.577,5.241,2.665l16.938-6.779c2.278-0.91,3.188-3.424,2.026-5.584l-17.611-32.737
	V82.6z M306.4,69.248c-0.516,0-1.075-0.537-1.361-0.854c-0.697-0.775-1.366-1.979-1.938-3.487
	c-1.281-3.373-1.987-7.892-1.987-12.726c0-4.834,0.706-9.354,1.987-12.725c0.571-1.506,1.24-2.713,1.938-3.488
	c0.287-0.319,0.846-0.857,1.361-0.857c0.518,0,1.076,0.538,1.361,0.857c0.696,0.775,1.367,1.98,1.938,3.488
	c1.281,3.371,1.986,7.89,1.986,12.725c0,4.833-0.705,9.353-1.986,12.726c-0.57,1.504-1.242,2.711-1.938,3.487
	C307.477,68.715,306.918,69.248,306.4,69.248z"/>
</svg>
